<svg width="151" height="17" viewBox="0 0 151 17" fill="none" xmlns="http://www.w3.org/2000/svg">
<path d="M12.8849 6.36222H10.2287C10.1529 5.92661 10.0133 5.54072 9.80966 5.20455C9.60606 4.86364 9.35275 4.57481 9.04972 4.33807C8.74669 4.10133 8.40104 3.92377 8.01278 3.8054C7.62926 3.68229 7.21496 3.62074 6.76989 3.62074C5.97917 3.62074 5.27841 3.8196 4.66761 4.21733C4.05682 4.61032 3.5786 5.18797 3.23295 5.95028C2.88731 6.70786 2.71449 7.63352 2.71449 8.72727C2.71449 9.83996 2.88731 10.7775 3.23295 11.5398C3.58333 12.2973 4.06155 12.8703 4.66761 13.2585C5.27841 13.642 5.9768 13.8338 6.76278 13.8338C7.19839 13.8338 7.60559 13.777 7.98438 13.6634C8.3679 13.545 8.71117 13.3722 9.0142 13.1449C9.32197 12.9176 9.58002 12.6383 9.78835 12.3068C10.0014 11.9754 10.1482 11.5966 10.2287 11.1705L12.8849 11.1847C12.7855 11.8759 12.5701 12.5246 12.2386 13.1307C11.9119 13.7367 11.4834 14.2718 10.9531 14.7358C10.4228 15.1951 9.80256 15.5549 9.09233 15.8153C8.3821 16.071 7.59375 16.1989 6.72727 16.1989C5.44886 16.1989 4.30777 15.9029 3.30398 15.3111C2.30019 14.7192 1.50947 13.8646 0.931818 12.7472C0.354167 11.6297 0.0653409 10.2898 0.0653409 8.72727C0.0653409 7.16004 0.356534 5.82008 0.93892 4.70739C1.52131 3.58996 2.31439 2.73532 3.31818 2.14347C4.32197 1.55161 5.45833 1.25568 6.72727 1.25568C7.53693 1.25568 8.28977 1.36932 8.9858 1.59659C9.68182 1.82386 10.3021 2.15767 10.8466 2.59801C11.3911 3.03362 11.8385 3.56866 12.1889 4.20312C12.544 4.83286 12.776 5.55256 12.8849 6.36222ZM19.9428 16.2131C18.8775 16.2131 17.9542 15.9787 17.1729 15.5099C16.3917 15.0412 15.7856 14.3854 15.3548 13.5426C14.9286 12.6998 14.7156 11.715 14.7156 10.5881C14.7156 9.46117 14.9286 8.47396 15.3548 7.62642C15.7856 6.77888 16.3917 6.12074 17.1729 5.65199C17.9542 5.18324 18.8775 4.94886 19.9428 4.94886C21.0082 4.94886 21.9315 5.18324 22.7127 5.65199C23.494 6.12074 24.0977 6.77888 24.5238 7.62642C24.9547 8.47396 25.1701 9.46117 25.1701 10.5881C25.1701 11.715 24.9547 12.6998 24.5238 13.5426C24.0977 14.3854 23.494 15.0412 22.7127 15.5099C21.9315 15.9787 21.0082 16.2131 19.9428 16.2131ZM19.957 14.1534C20.5347 14.1534 21.0176 13.9948 21.4059 13.6776C21.7942 13.3556 22.083 12.9247 22.2724 12.3849C22.4665 11.8452 22.5636 11.2438 22.5636 10.581C22.5636 9.91335 22.4665 9.30966 22.2724 8.76989C22.083 8.22538 21.7942 7.79214 21.4059 7.47017C21.0176 7.1482 20.5347 6.98722 19.957 6.98722C19.3652 6.98722 18.8728 7.1482 18.4798 7.47017C18.0915 7.79214 17.8003 8.22538 17.6062 8.76989C17.4168 9.30966 17.3221 9.91335 17.3221 10.581C17.3221 11.2438 17.4168 11.8452 17.6062 12.3849C17.8003 12.9247 18.0915 13.3556 18.4798 13.6776C18.8728 13.9948 19.3652 14.1534 19.957 14.1534ZM29.9233 9.60795V16H27.3523V5.09091H29.8097V6.9446H29.9375C30.1884 6.33381 30.5885 5.84848 31.1378 5.48864C31.6918 5.12879 32.3759 4.94886 33.1903 4.94886C33.9432 4.94886 34.599 5.10985 35.1577 5.43182C35.7211 5.75379 36.1567 6.22017 36.4645 6.83097C36.777 7.44176 36.9309 8.18276 36.9261 9.05398V16H34.3551V9.4517C34.3551 8.72254 34.1657 8.15199 33.7869 7.74006C33.4129 7.32812 32.8944 7.12216 32.2315 7.12216C31.7817 7.12216 31.3816 7.22159 31.0312 7.42045C30.6856 7.61458 30.4134 7.89631 30.2145 8.26562C30.0204 8.63494 29.9233 9.08239 29.9233 9.60795ZM44.9872 5.09091V7.07955H38.7159V5.09091H44.9872ZM40.2642 2.47727H42.8352V12.7188C42.8352 13.0644 42.8873 13.3295 42.9915 13.5142C43.1004 13.6941 43.2424 13.8172 43.4176 13.8835C43.5928 13.9498 43.7869 13.983 44 13.983C44.161 13.983 44.3078 13.9711 44.4403 13.9474C44.5777 13.9238 44.6818 13.9025 44.7528 13.8835L45.1861 15.8935C45.0488 15.9408 44.8523 15.9929 44.5966 16.0497C44.3456 16.1065 44.0379 16.1397 43.6733 16.1491C43.0294 16.1681 42.4493 16.071 41.9332 15.858C41.4171 15.6402 41.0076 15.304 40.7045 14.8494C40.4063 14.3949 40.2595 13.8267 40.2642 13.1449V2.47727ZM47.1374 16V5.09091H49.6303V6.90909H49.744C49.9428 6.27936 50.2837 5.79403 50.7667 5.45312C51.2544 5.10748 51.8107 4.93466 52.4357 4.93466C52.5778 4.93466 52.7364 4.94176 52.9116 4.95597C53.0915 4.96544 53.2406 4.98201 53.359 5.00568V7.37074C53.2501 7.33286 53.0773 7.29972 52.8406 7.27131C52.6085 7.23816 52.3836 7.22159 52.1658 7.22159C51.6971 7.22159 51.2757 7.32339 50.9016 7.52699C50.5323 7.72585 50.2411 8.00284 50.0281 8.35795C49.815 8.71307 49.7085 9.12263 49.7085 9.58665V16H47.1374ZM59.3764 16.2131C58.3111 16.2131 57.3878 15.9787 56.6065 15.5099C55.8253 15.0412 55.2192 14.3854 54.7884 13.5426C54.3622 12.6998 54.1491 11.715 54.1491 10.5881C54.1491 9.46117 54.3622 8.47396 54.7884 7.62642C55.2192 6.77888 55.8253 6.12074 56.6065 5.65199C57.3878 5.18324 58.3111 4.94886 59.3764 4.94886C60.4418 4.94886 61.3651 5.18324 62.1463 5.65199C62.9276 6.12074 63.5313 6.77888 63.9574 7.62642C64.3883 8.47396 64.6037 9.46117 64.6037 10.5881C64.6037 11.715 64.3883 12.6998 63.9574 13.5426C63.5313 14.3854 62.9276 15.0412 62.1463 15.5099C61.3651 15.9787 60.4418 16.2131 59.3764 16.2131ZM59.3906 14.1534C59.9683 14.1534 60.4512 13.9948 60.8395 13.6776C61.2277 13.3556 61.5166 12.9247 61.706 12.3849C61.9001 11.8452 61.9972 11.2438 61.9972 10.581C61.9972 9.91335 61.9001 9.30966 61.706 8.76989C61.5166 8.22538 61.2277 7.79214 60.8395 7.47017C60.4512 7.1482 59.9683 6.98722 59.3906 6.98722C58.7988 6.98722 58.3063 7.1482 57.9134 7.47017C57.5251 7.79214 57.2339 8.22538 57.0398 8.76989C56.8504 9.30966 56.7557 9.91335 56.7557 10.581C56.7557 11.2438 56.8504 11.8452 57.0398 12.3849C57.2339 12.9247 57.5251 13.3556 57.9134 13.6776C58.3063 13.9948 58.7988 14.1534 59.3906 14.1534ZM69.3569 1.45455V16H66.7859V1.45455H69.3569Z" fill="#6741D9"/>
<path d="M77.0753 16V1.45455H86.3935V3.66335H79.7102V7.61222H85.7543V9.82102H79.7102V16H77.0753ZM88.6804 16V5.09091H91.2514V16H88.6804ZM89.973 3.54261C89.5658 3.54261 89.2154 3.40767 88.9219 3.13778C88.6283 2.86316 88.4815 2.53409 88.4815 2.15057C88.4815 1.76231 88.6283 1.43324 88.9219 1.16335C89.2154 0.88873 89.5658 0.75142 89.973 0.75142C90.3849 0.75142 90.7353 0.88873 91.0241 1.16335C91.3177 1.43324 91.4645 1.76231 91.4645 2.15057C91.4645 2.53409 91.3177 2.86316 91.0241 3.13778C90.7353 3.40767 90.3849 3.54261 89.973 3.54261ZM96.4663 9.60795V16H93.8952V5.09091H96.3526V6.9446H96.4805C96.7314 6.33381 97.1315 5.84848 97.6808 5.48864C98.2347 5.12879 98.9189 4.94886 99.7333 4.94886C100.486 4.94886 101.142 5.10985 101.701 5.43182C102.264 5.75379 102.7 6.22017 103.007 6.83097C103.32 7.44176 103.474 8.18276 103.469 9.05398V16H100.898V9.4517C100.898 8.72254 100.709 8.15199 100.33 7.74006C99.9558 7.32812 99.4374 7.12216 98.7745 7.12216C98.3247 7.12216 97.9246 7.22159 97.5742 7.42045C97.2286 7.61458 96.9563 7.89631 96.7575 8.26562C96.5633 8.63494 96.4663 9.08239 96.4663 9.60795ZM109.222 16.2202C108.531 16.2202 107.908 16.0971 107.354 15.8509C106.805 15.5999 106.369 15.2306 106.047 14.7429C105.73 14.2552 105.571 13.6539 105.571 12.9389C105.571 12.3234 105.685 11.8144 105.912 11.4119C106.14 11.0095 106.45 10.6875 106.843 10.446C107.236 10.2045 107.678 10.0223 108.171 9.89915C108.668 9.77131 109.182 9.67898 109.712 9.62216C110.351 9.55587 110.87 9.49669 111.267 9.4446C111.665 9.38778 111.954 9.30256 112.134 9.18892C112.319 9.07055 112.411 8.88826 112.411 8.64205V8.59943C112.411 8.06439 112.252 7.65009 111.935 7.35653C111.618 7.06297 111.161 6.91619 110.564 6.91619C109.935 6.91619 109.435 7.0535 109.066 7.32812C108.701 7.60275 108.455 7.92708 108.327 8.30114L105.926 7.96023C106.116 7.29735 106.428 6.74337 106.864 6.2983C107.3 5.84848 107.832 5.51231 108.462 5.28977C109.092 5.0625 109.788 4.94886 110.55 4.94886C111.076 4.94886 111.599 5.01042 112.12 5.13352C112.641 5.25663 113.116 5.46023 113.547 5.74432C113.978 6.02367 114.324 6.40483 114.584 6.88778C114.849 7.37074 114.982 7.97443 114.982 8.69886V16H112.51V14.5014H112.425C112.269 14.8045 112.049 15.0885 111.765 15.3537C111.485 15.6141 111.132 15.8248 110.706 15.9858C110.285 16.142 109.79 16.2202 109.222 16.2202ZM109.89 14.331C110.406 14.331 110.853 14.2292 111.232 14.0256C111.611 13.8172 111.902 13.5426 112.105 13.2017C112.314 12.8608 112.418 12.4891 112.418 12.0866V10.8011C112.337 10.8674 112.2 10.929 112.006 10.9858C111.817 11.0426 111.604 11.0923 111.367 11.1349C111.13 11.1776 110.896 11.2154 110.664 11.2486C110.432 11.2817 110.23 11.3101 110.06 11.3338C109.676 11.3859 109.333 11.4711 109.03 11.5895C108.727 11.7079 108.488 11.8736 108.313 12.0866C108.138 12.295 108.05 12.5649 108.05 12.8963C108.05 13.3698 108.223 13.7273 108.569 13.9688C108.914 14.2102 109.355 14.331 109.89 14.331ZM120.138 9.60795V16H117.567V5.09091H120.025V6.9446H120.152C120.403 6.33381 120.803 5.84848 121.353 5.48864C121.907 5.12879 122.591 4.94886 123.405 4.94886C124.158 4.94886 124.814 5.10985 125.373 5.43182C125.936 5.75379 126.372 6.22017 126.679 6.83097C126.992 7.44176 127.146 8.18276 127.141 9.05398V16H124.57V9.4517C124.57 8.72254 124.381 8.15199 124.002 7.74006C123.628 7.32812 123.109 7.12216 122.446 7.12216C121.997 7.12216 121.596 7.22159 121.246 7.42045C120.9 7.61458 120.628 7.89631 120.429 8.26562C120.235 8.63494 120.138 9.08239 120.138 9.60795ZM134.513 16.2131C133.424 16.2131 132.489 15.974 131.708 15.4957C130.931 15.0175 130.332 14.357 129.911 13.5142C129.494 12.6667 129.286 11.6913 129.286 10.5881C129.286 9.48011 129.499 8.50237 129.925 7.65483C130.351 6.80256 130.953 6.13968 131.729 5.66619C132.51 5.18797 133.434 4.94886 134.499 4.94886C135.384 4.94886 136.168 5.11222 136.85 5.43892C137.536 5.76089 138.083 6.2178 138.49 6.80966C138.898 7.39678 139.13 8.08333 139.186 8.86932H136.729C136.63 8.34375 136.393 7.90578 136.019 7.5554C135.65 7.20028 135.155 7.02273 134.534 7.02273C134.009 7.02273 133.547 7.16477 133.15 7.44886C132.752 7.72822 132.442 8.13068 132.219 8.65625C132.001 9.18182 131.892 9.81155 131.892 10.5455C131.892 11.2888 132.001 11.928 132.219 12.4631C132.437 12.9934 132.742 13.4029 133.135 13.6918C133.533 13.9759 133.999 14.1179 134.534 14.1179C134.913 14.1179 135.252 14.0469 135.55 13.9048C135.853 13.758 136.106 13.5473 136.31 13.2727C136.514 12.9981 136.653 12.6643 136.729 12.2713H139.186C139.125 13.0431 138.898 13.7273 138.505 14.3239C138.112 14.9157 137.577 15.3797 136.9 15.7159C136.222 16.0473 135.427 16.2131 134.513 16.2131ZM146.127 16.2131C145.033 16.2131 144.089 15.9858 143.293 15.5312C142.503 15.072 141.894 14.4233 141.468 13.5852C141.042 12.7424 140.829 11.7505 140.829 10.6094C140.829 9.48722 141.042 8.50237 141.468 7.65483C141.899 6.80256 142.5 6.13968 143.272 5.66619C144.044 5.18797 144.951 4.94886 145.992 4.94886C146.665 4.94886 147.299 5.05777 147.896 5.27557C148.497 5.48864 149.027 5.82008 149.487 6.26989C149.951 6.7197 150.315 7.29261 150.58 7.98864C150.845 8.67992 150.978 9.50379 150.978 10.4602V11.2486H142.036V9.51562H148.513C148.509 9.0232 148.402 8.58523 148.194 8.2017C147.986 7.81345 147.694 7.50805 147.32 7.28551C146.951 7.06297 146.52 6.9517 146.028 6.9517C145.502 6.9517 145.04 7.07955 144.643 7.33523C144.245 7.58617 143.935 7.91761 143.712 8.32955C143.495 8.73674 143.383 9.18419 143.379 9.67188V11.1847C143.379 11.8191 143.495 12.3636 143.727 12.8182C143.959 13.268 144.283 13.6136 144.7 13.8551C145.116 14.0919 145.604 14.2102 146.163 14.2102C146.537 14.2102 146.875 14.1581 147.178 14.054C147.481 13.9451 147.744 13.7865 147.967 13.5781C148.189 13.3698 148.357 13.1117 148.471 12.804L150.871 13.0739C150.72 13.7083 150.431 14.2623 150.005 14.7358C149.584 15.2045 149.044 15.5691 148.386 15.8295C147.728 16.0852 146.975 16.2131 146.127 16.2131Z" fill="#212529"/>
</svg>
